{"title":"The Howling Reborn 2011 BRRip x264 Feel-Free","uid":6742559,"size":1337866232,"categoryP":"video","categoryS":"movies","magnet":"?xt=urn:btih:cebde3c528dc4a9f5ac42e9fabec232563b67fc5&amp;dn=The+Howling+Reborn+2011+BRRip+x264+Feel-Free&amp;tr=udp%3A%2F%2Ftracker.openbittorrent.com%3A80&amp;tr=udp%3A%2F%2Fopen.demonii.com%3A1337&amp;tr=udp%3A%2F%2Ftracker.coppersurfer.tk%3A6969&amp;tr=udp%3A%2F%2Fexodus.desync.com%3A6969","seeders":0,"leechers":1,"uploader":"HeroMaster","files":-1,"time":1318567184,"description":"The Howling Reborn 2011 BRRip x264 Feel-Free\n\nGenre:Horror\nLanguage:English\nIMDb:http://www.imdb.com/title/tt1554092/\nSource:720p.BluRay Thanks!\n\nFormat : MPEG-4\nFormat profile : Base Media\nCodec ID : isom\nFile size : 1.24 GiB\nDuration : 1h 32mn\nOverall bit rate : 1 934 Kbps\n\nVideo\nID : 1\nFormat : AVC\nFormat/Info : Advanced Video Codec\nFormat profile : &lt;a class=&quot;__cf_email__&quot; href=&quot;/cdn-cgi/l/email-protection&quot; data-cfemail=&quot;460e2f212e060a726877&quot;&gt;[email&amp;#160;protected]&lt;/a&gt;&lt;script cf-hash='f9e31' type=&quot;text/javascript&quot;&gt;\n/* &lt;![CDATA[ */!function(){try{var t=&quot;currentScript&quot;in document?document.currentScript:function(){for(var t=document.getElementsByTagName(&quot;script&quot;),e=t.length;e--;)if(t[e].getAttribute(&quot;cf-hash&quot;))return t[e]}();if(t&amp;&amp;t.previousSibling){var e,r,n,i,c=t.previousSibling,a=c.getAttribute(&quot;data-cfemail&quot;);if(a){for(e=&quot;&quot;,r=parseInt(a.substr(0,2),16),n=2;a.length-n;n+=2)i=parseInt(a.substr(n,2),16)^r,e+=String.fromCharCode(i);e=document.createTextNode(e),c.parentNode.replaceChild(e,c)}}}catch(u){}}();/* ]]&gt; */&lt;/script&gt;\nFormat settings, CABAC : Yes\nFormat settings, ReFrames : 3 frames\nCodec ID : avc1\nCodec ID/Info : Advanced Video Coding\nDuration : 1h 32mn\nBit rate mode : Variable\nBit rate : 1 500 Kbps\nMaximum bit rate : 8 305 Kbps\nWidth : 720 pixels\nHeight : 400 pixels\nDisplay aspect ratio : 16:9\nFrame rate mode : Constant\nFrame rate : 23.976 fps\nColor space : YUV\nChroma subsampling : 4:2:0\nBit depth : 8 bits\nScan type : Progressive\nBits/(Pixel*Frame) : 0.217\nStream size : 979 MiB (77%)\nWriting library : x264\n\n\nAudio\nID : 2\nFormat : AAC\nFormat/Info : Advanced Audio Codec\nFormat version : Version 4\nFormat profile : LC\nFormat settings, SBR : No\nCodec ID : 40\nDuration : 1h 32mn\nBit rate mode : Variable\nBit rate : 444 Kbps\nMaximum bit rate : 539 Kbps\nChannel(s) : 6 channels\nChannel positions : Front: L C R, Side: L R, LFE\nSampling rate : 48.0 KHz\nStream size : 293 MiB (23%)\n\n\nPlot:\nOn the eve of his high school graduation, unremarkable Will Kidman finally bonds with the girl he has long yearned for..\n\n\nPoster:\n\n &lt;a href=&quot;\nhttp://shareimage.org/images/5a9c9k0xulvtrcwbqjq6.jpg&quot; rel=&quot;nofollow&quot; target=&quot;_NEW&quot;&gt;\nhttp://shareimage.org/images/5a9c9k0xulvtrcwbqjq6.jpg&lt;/a&gt;\n\n\nScreens:\n\n &lt;a href=&quot;\nhttp://shareimage.org/images/dg6pa3fdxbz8y2suo5mo.png&quot; rel=&quot;nofollow&quot; target=&quot;_NEW&quot;&gt;\nhttp://shareimage.org/images/dg6pa3fdxbz8y2suo5mo.png&lt;/a&gt;\n &lt;a href=&quot;\nhttp://shareimage.org/images/7qbetat58fkloaev4z7j.png&quot; rel=&quot;nofollow&quot; target=&quot;_NEW&quot;&gt;\nhttp://shareimage.org/images/7qbetat58fkloaev4z7j.png&lt;/a&gt;\n &lt;a href=&quot;\nhttp://shareimage.org/images/b3gxfjeirxmclr2rr.png&quot; rel=&quot;nofollow&quot; target=&quot;_NEW&quot;&gt;\nhttp://shareimage.org/images/b3gxfjeirxmclr2rr.png&lt;/a&gt;\n\n\nENJOY!","torrent":{"xt":"urn:btih:cebde3c528dc4a9f5ac42e9fabec232563b67fc5","amp;dn":"The+Howling+Reborn+2011+BRRip+x264+Feel-Free","amp;tr":["udp%3A%2F%2Ftracker.openbittorrent.com%3A80","udp%3A%2F%2Fopen.demonii.com%3A1337","udp%3A%2F%2Ftracker.coppersurfer.tk%3A6969","udp%3A%2F%2Fexodus.desync.com%3A6969"],"infoHash":"cebde3c528dc4a9f5ac42e9fabec232563b67fc5","infoHashBuffer":{"type":"Buffer","data":[206,189,227,197,40,220,74,159,90,196,46,159,171,236,35,37,99,182,127,197]},"announce":[],"urlList":[]}}